<?xml version="1.0" encoding="UTF-8"?>
<svg xmlns="http://www.w3.org/2000/svg" viewBox="0 0 24 24" aria-hidden="true" role="img">
  <!-- Simple original WhatsApp-style icon (chat bubble + phone) -->
  <defs>
    <style> .wh-fill { fill: #25D366; } .wh-phone { fill: #fff; } </style>
  </defs>
  <rect width="24" height="24" rx="4" fill="none"/>
  <path class="wh-fill" d="M12 2C7.03 2 3 6.03 3 11c0 2.03.66 3.9 1.78 5.39L4 22l5.86-1.56C10.17 20.62 11.06 21 12 21c4.97 0 9-4.03 9-9s-4.03-9-9-9z"/>
  <path class="wh-phone" d="M17.1 14.2c-.3-.15-1.8-.9-2.1-1- .3-.1-.5-.15-.7.12s-.8.9-1 1.1c-.2.2-.35.22-.65.08-.3-.14-1.25-.45-2.36-1.45-1.09-.97-1.82-2.16-2.04-2.52-.2-.35-.02-.55.12-.7.13-.13.3-.33.45-.5.15-.17.1-.33-.02-.5-.12-.18-.9-1.95-1.24-2.67-.34-.72-.68-.78-.94-.8-.26-.02-.57.03-.88.03s-.73.09-1.09.7c-.36.6-1.08 1.86-1.08 3.6 0 1.74 1.27 3.82 1.45 4.08.18.26 2.3 3.9 6.32 5.04 4.02 1.14 4.02.97 4.72.91.7-.06 2.17-.58 2.48-1.13.32-.55.32-1.02.22-1.18-.1-.16-.34-.27-.72-.45z"/>
</svg>
